<svg width="26" height="26" viewBox="0 0 26 26" fill="none" xmlns="http://www.w3.org/2000/svg">
<path d="M12.5502 0.0400391C5.64759 0.0400391 0 5.67508 0 12.6153C0 18.8904 4.59337 24.0988 10.5924 25.04V16.2549H7.40462V12.6153H10.5924V9.84175C10.5924 6.69165 12.4624 4.95972 15.3363 4.95972C16.7043 4.95972 18.135 5.19817 18.135 5.19817V8.29807H16.5537C14.9975 8.29807 14.508 9.26444 14.508 10.2559V12.6153H17.997L17.4322 16.2549H14.508V25.04C17.4654 24.573 20.1584 23.064 22.1008 20.7856C24.0432 18.5072 25.1071 15.6094 25.1004 12.6153C25.1004 5.67508 19.4528 0.0400391 12.5502 0.0400391Z" fill="#2E7EC8"/>
</svg>
