<svg width="26" height="26" viewBox="0 0 26 26" fill="none" xmlns="http://www.w3.org/2000/svg">
<path d="M12.8999 0.399902C5.99626 0.399902 0.399902 5.99626 0.399902 12.8999C0.399902 19.8035 5.99626 25.3999 12.8999 25.3999C19.8035 25.3999 25.3999 19.8035 25.3999 12.8999C25.3999 5.99626 19.8035 0.399902 12.8999 0.399902ZM17.9845 10.6395C17.9897 10.7463 17.991 10.853 17.991 10.9572C17.991 14.2124 15.5158 17.9637 10.9871 17.9637C9.64898 17.9659 8.33866 17.5816 7.2137 16.8569C7.40511 16.8804 7.60172 16.8895 7.80094 16.8895C8.95459 16.8895 10.0158 16.4976 10.8582 15.8361C10.3448 15.826 9.84739 15.656 9.4352 15.3498C9.02302 15.0436 8.71663 14.6164 8.55876 14.1278C8.92745 14.1979 9.30726 14.1832 9.66943 14.0848C9.1122 13.9721 8.6111 13.6702 8.25108 13.2302C7.89107 12.7902 7.69431 12.2392 7.69417 11.6707V11.6408C8.0262 11.8244 8.40641 11.9364 8.81006 11.9494C8.28766 11.6016 7.91785 11.0674 7.77626 10.4561C7.63467 9.84469 7.732 9.20231 8.04834 8.66032C8.66677 9.42074 9.438 10.0428 10.3121 10.4862C11.1862 10.9297 12.1437 11.1846 13.1226 11.2345C12.9981 10.7063 13.0517 10.1517 13.2749 9.65707C13.4982 9.16241 13.8786 8.75536 14.357 8.4992C14.8355 8.24305 15.3852 8.15215 15.9206 8.24062C16.456 8.3291 16.9473 8.59199 17.3179 8.98844C17.8689 8.87943 18.3973 8.67732 18.8804 8.39079C18.6967 8.96128 18.3122 9.4457 17.7983 9.75407C18.2864 9.69528 18.763 9.56406 19.2124 9.36475C18.8823 9.8594 18.4665 10.2911 17.9845 10.6395Z" fill="#2E7EC8"/>
</svg>
